<svg width="386" height="317" viewBox="0 0 386 317" fill="none" xmlns="http://www.w3.org/2000/svg">
<path fillRule="evenodd" clip-rule="evenodd" d="M21 53.7975H361L192.598 0L21 53.7975Z" fill="#070D2B"/>
<rect x="21" y="53.7969" width="340" height="27.9747" fill="#99CDFF"/>
<rect x="51.1265" y="90.3789" width="47.3418" height="157.089" fill="#0083FF"/>
<rect x="128.595" y="90.3789" width="47.3418" height="157.089" fill="#0083FF"/>
<rect x="206.063" y="90.3789" width="47.3418" height="157.089" fill="#0083FF"/>
<rect x="283.532" y="90.3789" width="47.3418" height="157.089" fill="#0083FF"/>
<rect x="38.2153" y="258.227" width="305.57" height="19.3671" fill="#99CDFF"/>
<rect x="21" y="288.355" width="340" height="19.3671" fill="#99CDFF"/>
<path d="M309.028 70.7169C315.055 76.0169 327.486 81.895 342.414 86.0474C356.964 90.0947 370.324 91.4876 378.331 90.2436C382.194 89.6479 384.787 88.4215 385.672 86.5906L385.874 86.0387C387.626 79.8539 370.981 69.8234 348.677 63.6386C326.373 57.4538 306.987 57.4538 305.261 63.6386C304.665 65.6797 306.084 68.1326 309.028 70.7169Z" fill="#FFD9D7"/>
<path d="M338.77 97.104C360.732 103.236 379.944 103.14 381.696 96.9551L385.681 86.5917C384.805 88.4226 382.177 89.649 378.34 90.2447C370.369 91.4887 357.009 90.0958 342.423 86.0485C327.531 81.8961 315.065 76.018 309.038 70.718C306.094 68.1337 304.657 65.6808 305.236 63.6484L302.126 74.8441C300.391 81.0376 316.808 90.9981 338.77 97.104Z" fill="#FF9583"/>
<path d="M7.02744 226.717C13.0545 232.017 25.4855 237.895 40.4131 242.047C54.9639 246.095 68.3234 247.488 76.3303 246.244C80.1936 245.648 82.7866 244.421 83.6714 242.591L83.873 242.039C85.6251 235.854 68.9803 225.823 46.6766 219.639C24.3729 213.454 4.98646 213.454 3.26068 219.639C2.66498 221.68 4.08398 224.133 7.02744 226.717Z" fill="#FFD9D7"/>
<path d="M36.7702 253.104C58.7322 259.236 77.9436 259.14 79.6957 252.955L83.6814 242.592C82.8054 244.423 80.1774 245.649 76.3404 246.245C68.3685 247.489 55.009 246.096 40.4231 242.049C25.5306 237.896 13.0646 232.018 7.03751 226.718C4.09405 224.134 2.6575 221.681 3.23568 219.648L0.125724 230.844C-1.60882 237.038 14.8081 246.998 36.7702 253.104Z" fill="#FF9583"/>
<path d="M373.709 272.08C373.61 275.181 363.536 277.569 349.284 278.298C344.574 278.539 339.392 278.597 333.962 278.439C328.68 278.29 323.656 277.95 319.038 277.469C304.686 275.935 294.621 272.975 294.621 269.841V269.8C294.745 265.654 312.538 262.819 334.418 263.449C356.298 264.079 373.825 267.934 373.709 272.08Z" fill="#FFD9D7"/>
<path d="M373.712 272.078V285.949C373.58 290.095 355.787 292.939 333.915 292.309C312.043 291.679 294.466 287.823 294.582 283.686V269.84C294.582 272.974 304.648 275.934 319 277.468C323.584 277.949 328.609 278.297 333.923 278.438C339.354 278.595 344.536 278.537 349.245 278.297C363.539 277.567 373.613 275.179 373.712 272.078Z" fill="#FF9583"/>
<path d="M306.231 247.089C311.935 252.105 323.701 257.669 337.829 261.599C351.6 265.429 364.244 266.747 371.822 265.57C375.478 265.006 377.932 263.846 378.77 262.113L378.961 261.59C380.619 255.737 364.866 246.244 343.757 240.39C322.647 234.537 304.299 234.537 302.666 240.39C302.102 242.322 303.445 244.643 306.231 247.089Z" fill="#FFD9D7"/>
<path d="M334.381 272.062C355.167 277.866 373.349 277.775 375.008 271.921L378.78 262.113C377.951 263.846 375.463 265.006 371.832 265.57C364.287 266.747 351.643 265.429 337.839 261.599C323.744 257.669 311.945 252.105 306.241 247.089C303.455 244.643 302.096 242.322 302.643 240.398L299.7 250.994C298.058 256.856 313.595 266.283 334.381 272.062Z" fill="#FF9583"/>
</svg>
