<svg width="865" height="1117" viewBox="0 0 865 1117" fill="none" xmlns="http://www.w3.org/2000/svg">
<rect width="864" height="1117" fill="#0083FF"/>
<mask id="mask0_3313_126261" style="mask-type:alpha" maskUnits="userSpaceOnUse" x="0" y="77" width="865" height="1040">
<rect y="77" width="864.745" height="1040" fill="#C4C4C4"/>
</mask>
<g mask="url(#mask0_3313_126261)">
<path d="M864.745 77H0V1229.99H864.745V77Z" fill="#0083FF"/>
<path d="M682.386 497.608H208.045L25.0879 679.712H497.008L682.386 497.608Z" fill="#2D4379"/>
<path d="M865.323 679.739V982.838L818.903 983.184L546.843 985.121L496.826 985.467V679.739L682.389 497.635L865.323 679.739Z" fill="#CCE6FF"/>
<path d="M496.824 679.691H25.0879V985.442H496.824V679.691Z" fill="#CCE6FF"/>
<path d="M761.737 970.8L713.657 970.593L611.525 970.155L564.967 969.947V774.93L663.732 676.557L761.644 774.93L761.737 970.8Z" fill="#99CDFF"/>
<path d="M681.949 760.878H207.631L24.6738 942.982H496.594L681.949 760.878Z" fill="#2D4379"/>
<path d="M864.907 943.009V1137.75L818.487 1137.68H546.427L496.387 1138.03V943.009L681.95 760.905L864.907 943.009Z" fill="white"/>
<path d="M691.496 845.974H673.717C665.426 845.974 658.705 852.696 658.705 860.986V903.993C658.705 912.284 665.426 919.005 673.717 919.005H691.496C699.787 919.005 706.508 912.284 706.508 903.993V860.986C706.508 852.696 699.787 845.974 691.496 845.974Z" fill="#99CDFF"/>
<path d="M663.707 676.584L862.368 676.86L960.072 774.888L761.55 774.842L663.707 676.584Z" fill="#329CFF"/>
<path d="M818.485 1007.62V1137.75L546.379 1137.68V1007.62C546.379 1003.34 548.08 999.232 551.107 996.205C554.134 993.178 558.24 991.477 562.521 991.477H802.343C804.463 991.477 806.563 991.894 808.522 992.706C810.48 993.517 812.258 994.706 813.757 996.205C815.256 997.704 816.446 999.483 817.257 1001.44C818.068 1003.4 818.485 1005.5 818.485 1007.62Z" fill="#99CDFF"/>
<path d="M761.737 970.803L960.075 969.973V774.886L761.645 774.84L761.737 970.803Z" fill="white"/>
<path d="M496.409 942.961H401.264V1138.09H496.409V942.961Z" fill="#99CDFF"/>
<path d="M221.444 1138.88L419.782 1138.05V942.962L221.352 942.916L221.444 1138.88Z" fill="white"/>
<path d="M279.395 992.197H261.615C253.325 992.197 246.604 998.918 246.604 1007.21V1050.22C246.604 1058.51 253.325 1065.23 261.615 1065.23H279.395C287.686 1065.23 294.407 1058.51 294.407 1050.22V1007.21C294.407 998.918 287.686 992.197 279.395 992.197Z" fill="#99CDFF"/>
<path d="M354.846 992.197H337.067C328.776 992.197 322.055 998.918 322.055 1007.21V1050.22C322.055 1058.51 328.776 1065.23 337.067 1065.23H354.846C363.137 1065.23 369.858 1058.51 369.858 1050.22V1007.21C369.858 998.918 363.137 992.197 354.846 992.197Z" fill="#99CDFF"/>
<ellipse cx="457.738" cy="1106.62" rx="47.2727" ry="49.5787" fill="#54C3A1"/>
<path d="M801.178 1040.9C801.178 1040.35 800.73 1039.9 800.178 1039.9C799.625 1039.9 799.178 1040.35 799.178 1040.9L801.178 1040.9ZM799.178 1040.9L799.178 1149.28L801.178 1149.28L801.178 1040.9L799.178 1040.9Z" fill="black"/>
<ellipse cx="801.331" cy="997.089" rx="47.2727" ry="78.4035" fill="#54C3A1"/>
<mask id="mask1_3313_126261" style="mask-type:alpha" maskUnits="userSpaceOnUse" x="25" y="497" width="658" height="183">
<path d="M682.386 497.608H208.045L25.0879 679.712H497.008L682.386 497.608Z" fill="#2D4379"/>
</mask>
<g mask="url(#mask1_3313_126261)">
<path d="M77.3685 690.271C71.0322 652.036 88.7845 610.849 121.015 589.239C132.136 581.775 144.629 576.589 157.238 572.035C167.704 568.261 178.581 564.771 187.251 557.793C197.559 549.496 203.758 536.857 206.081 523.838C208.404 510.819 207.137 497.409 204.423 484.464C201.255 469.221 196.502 452.185 204.866 439.04" stroke="#67B5FF" stroke-opacity="0.5" stroke-width="0.5" stroke-miterlimit="10"/>
<path d="M56.6146 690.271C50.2783 652.036 68.0306 610.849 100.262 589.239C111.382 581.775 123.875 576.589 136.484 572.035C146.95 568.261 157.827 564.771 166.498 557.793C176.805 549.496 183.004 536.857 185.327 523.838C187.65 510.819 186.383 497.409 183.669 484.464C180.501 469.221 175.749 452.185 184.113 439.04" stroke="#67B5FF" stroke-opacity="0.5" stroke-width="0.5" stroke-miterlimit="10"/>
<path d="M91.3251 695.856C84.9885 657.621 102.752 616.434 134.974 594.824C146.105 587.36 158.588 582.173 171.198 577.619C181.674 573.845 192.542 570.356 201.212 563.377C211.509 555.071 217.73 542.42 220.043 529.422C222.355 516.424 221.099 502.994 218.385 490.049C215.216 474.806 210.474 457.77 218.828 444.625" stroke="#67B5FF" stroke-opacity="0.5" stroke-width="0.5" stroke-miterlimit="10"/>
<path d="M102.518 707.016C96.0455 668.79 114.191 627.591 147.117 605.98C158.477 598.516 171.229 593.329 184.11 588.775C194.812 585.001 205.923 581.511 214.77 574.533C225.353 566.289 231.643 553.638 233.984 540.576C236.325 527.514 235.062 514.147 232.29 501.201C229.053 485.957 224.209 468.921 232.743 455.785" stroke="#67B5FF" stroke-opacity="0.5" stroke-width="0.5" stroke-miterlimit="10"/>
<path d="M125.821 707.016C119.348 668.79 137.494 627.591 170.42 605.98C181.78 598.516 194.531 593.329 207.412 588.775C218.114 585.001 229.226 581.511 238.073 574.533C248.656 566.289 254.945 553.638 257.286 540.576C259.627 527.514 258.365 514.147 255.593 501.201C252.356 485.957 247.512 468.921 256.046 455.785" stroke="#67B5FF" stroke-opacity="0.5" stroke-width="0.5" stroke-miterlimit="10"/>
<path d="M149.124 707.016C142.651 668.79 160.797 627.591 193.722 605.98C205.082 598.516 217.834 593.329 230.715 588.775C241.417 585.001 252.529 581.511 261.375 574.533C271.959 566.289 278.248 553.638 280.589 540.576C282.93 527.514 281.668 514.147 278.895 501.201C275.659 485.957 270.815 468.921 279.348 455.785" stroke="#67B5FF" stroke-opacity="0.5" stroke-width="0.5" stroke-miterlimit="10"/>
<path d="M172.427 707.016C165.954 668.79 184.1 627.591 217.025 605.98C228.385 598.516 241.137 593.329 254.018 588.775C264.72 585.001 275.832 581.511 284.678 574.533C295.261 566.289 301.551 553.638 303.892 540.576C306.233 527.514 304.971 514.147 302.198 501.201C298.962 485.957 294.118 468.921 302.651 455.785" stroke="#67B5FF" stroke-opacity="0.5" stroke-width="0.5" stroke-miterlimit="10"/>
<path d="M195.729 707.016C189.256 668.79 207.402 627.591 240.328 605.98C251.688 598.516 264.439 593.329 277.321 588.775C288.023 585.001 299.134 581.511 307.981 574.533C318.564 566.289 324.853 553.638 327.195 540.576C329.536 527.514 328.273 514.147 325.501 501.201C322.264 485.957 317.42 468.921 325.954 455.785" stroke="#67B5FF" stroke-opacity="0.5" stroke-width="0.5" stroke-miterlimit="10"/>
<path d="M219.034 707.016C212.561 668.79 230.707 627.591 263.633 605.98C274.993 598.516 287.744 593.329 300.625 588.775C311.327 585.001 322.439 581.511 331.285 574.533C341.869 566.289 348.158 553.638 350.499 540.576C352.84 527.514 351.578 514.147 348.805 501.201C345.569 485.957 340.725 468.921 349.259 455.785" stroke="#67B5FF" stroke-opacity="0.5" stroke-width="0.5" stroke-miterlimit="10"/>
<path d="M242.337 707.016C235.864 668.79 254.01 627.591 286.935 605.98C298.295 598.516 311.047 593.329 323.928 588.775C334.63 585.001 345.742 581.511 354.588 574.533C365.171 566.289 371.461 553.638 373.802 540.576C376.143 527.514 374.881 514.147 372.108 501.201C368.872 485.957 364.028 468.921 372.561 455.785" stroke="#67B5FF" stroke-opacity="0.5" stroke-width="0.5" stroke-miterlimit="10"/>
<path d="M265.64 707.016C259.167 668.79 277.312 627.591 310.238 605.98C321.598 598.516 334.35 593.329 347.231 588.775C357.933 585.001 369.045 581.511 377.891 574.533C388.474 566.289 394.764 553.638 397.105 540.576C399.446 527.514 398.184 514.147 395.411 501.201C392.174 485.957 387.331 468.921 395.864 455.785" stroke="#67B5FF" stroke-opacity="0.5" stroke-width="0.5" stroke-miterlimit="10"/>
<path d="M288.942 707.016C282.469 668.79 300.615 627.591 333.541 605.98C344.901 598.516 357.652 593.329 370.534 588.775C381.235 585.001 392.347 581.511 401.194 574.533C411.777 566.289 418.066 553.638 420.407 540.576C422.748 527.514 421.486 514.147 418.714 501.201C415.477 485.957 410.633 468.921 419.167 455.785" stroke="#67B5FF" stroke-opacity="0.5" stroke-width="0.5" stroke-miterlimit="10"/>
<path d="M312.245 707.016C305.772 668.79 323.918 627.591 356.843 605.98C368.203 598.516 380.955 593.329 393.836 588.775C404.538 585.001 415.65 581.511 424.496 574.533C435.08 566.289 441.369 553.638 443.71 540.576C446.051 527.514 444.789 514.147 442.016 501.201C438.78 485.957 433.936 468.921 442.47 455.785" stroke="#67B5FF" stroke-opacity="0.5" stroke-width="0.5" stroke-miterlimit="10"/>
<path d="M335.55 707.016C329.077 668.79 347.223 627.591 380.148 605.98C391.508 598.516 404.26 593.329 417.141 588.775C427.843 585.001 438.955 581.511 447.801 574.533C458.384 566.289 464.674 553.638 467.015 540.576C469.356 527.514 468.094 514.147 465.321 501.201C462.085 485.957 457.241 468.921 465.774 455.785" stroke="#67B5FF" stroke-opacity="0.5" stroke-width="0.5" stroke-miterlimit="10"/>
<path d="M358.852 707.016C352.38 668.79 370.525 627.591 403.451 605.98C414.811 598.516 427.563 593.329 440.444 588.775C451.146 585.001 462.257 581.511 471.104 574.533C481.687 566.289 487.977 553.638 490.318 540.576C492.659 527.514 491.396 514.147 488.624 501.201C485.387 485.957 480.543 468.921 489.077 455.785" stroke="#67B5FF" stroke-opacity="0.5" stroke-width="0.5" stroke-miterlimit="10"/>
<path d="M382.155 707.016C375.682 668.79 393.828 627.591 426.754 605.98C438.114 598.516 450.865 593.329 463.746 588.775C474.448 585.001 485.56 581.511 494.407 574.533C504.99 566.289 511.279 553.638 513.62 540.576C515.961 527.514 514.699 514.147 511.927 501.201C508.69 485.957 503.846 468.921 512.38 455.785" stroke="#67B5FF" stroke-opacity="0.5" stroke-width="0.5" stroke-miterlimit="10"/>
<path d="M405.458 707.016C398.985 668.79 417.131 627.591 450.056 605.98C461.416 598.516 474.168 593.329 487.049 588.775C497.751 585.001 508.863 581.511 517.709 574.533C528.292 566.289 534.582 553.638 536.923 540.576C539.264 527.514 538.002 514.147 535.229 501.201C531.993 485.957 527.149 468.921 535.682 455.785" stroke="#67B5FF" stroke-opacity="0.5" stroke-width="0.5" stroke-miterlimit="10"/>
<path d="M428.761 707.016C422.288 668.79 440.433 627.591 473.359 605.98C484.719 598.516 497.471 593.329 510.352 588.775C521.054 585.001 532.166 581.511 541.012 574.533C551.595 566.289 557.885 553.638 560.226 540.576C562.567 527.514 561.305 514.147 558.532 501.201C555.296 485.957 550.452 468.921 558.985 455.785" stroke="#67B5FF" stroke-opacity="0.5" stroke-width="0.5" stroke-miterlimit="10"/>
<path d="M452.063 707.016C445.59 668.79 463.736 627.591 496.662 605.98C508.022 598.516 520.773 593.329 533.655 588.775C544.357 585.001 555.468 581.511 564.315 574.533C574.898 566.289 581.187 553.638 583.529 540.576C585.87 527.514 584.607 514.147 581.835 501.201C578.598 485.957 573.754 468.921 582.288 455.785" stroke="#67B5FF" stroke-opacity="0.5" stroke-width="0.5" stroke-miterlimit="10"/>
<path d="M475.368 707.016C468.895 668.79 487.041 627.591 519.967 605.98C531.327 598.516 544.078 593.329 556.959 588.775C567.661 585.001 578.773 581.511 587.619 574.533C598.203 566.289 604.492 553.638 606.833 540.576C609.174 527.514 607.912 514.147 605.139 501.201C601.903 485.957 597.059 468.921 605.593 455.785" stroke="#67B5FF" stroke-opacity="0.5" stroke-width="0.5" stroke-miterlimit="10"/>
<path d="M498.671 707.016C492.198 668.79 510.344 627.591 543.269 605.98C554.629 598.516 567.381 593.329 580.262 588.775C590.964 585.001 602.076 581.511 610.922 574.533C621.505 566.289 627.795 553.638 630.136 540.576C632.477 527.514 631.215 514.147 628.442 501.201C625.206 485.957 620.362 468.921 628.895 455.785" stroke="#67B5FF" stroke-opacity="0.5" stroke-width="0.5" stroke-miterlimit="10"/>
<path d="M520.145 707.016C513.672 668.79 531.818 627.591 564.744 605.98C576.104 598.516 588.856 593.329 601.737 588.775C612.439 585.001 623.55 581.511 632.397 574.533C642.98 566.289 649.27 553.638 651.611 540.576C653.952 527.514 652.689 514.147 649.917 501.201C646.68 485.957 641.836 468.921 650.37 455.785" stroke="#67B5FF" stroke-opacity="0.5" stroke-width="0.5" stroke-miterlimit="10"/>
</g>
<mask id="mask2_3313_126261" style="mask-type:alpha" maskUnits="userSpaceOnUse" x="24" y="760" width="658" height="183">
<path d="M681.949 760.878H207.631L24.6738 942.982H496.594L681.949 760.878Z" fill="#2D4379"/>
</mask>
<g mask="url(#mask2_3313_126261)">
<mask id="mask3_3313_126261" style="mask-type:alpha" maskUnits="userSpaceOnUse" x="23" y="754" width="658" height="184">
<path d="M680.357 754.96H206.016L23.0586 937.064H494.979L680.357 754.96Z" fill="#2D4379"/>
</mask>
<g mask="url(#mask3_3313_126261)">
<path d="M75.3412 947.623C69.0048 909.388 86.7572 868.202 118.988 846.591C130.108 839.127 142.602 833.941 155.211 829.387C165.676 825.613 176.554 822.124 185.224 815.145C195.531 806.849 201.73 794.209 204.054 781.19C206.377 768.171 205.11 754.762 202.396 741.816C199.227 726.573 194.475 709.538 202.839 696.392" stroke="#67B5FF" stroke-opacity="0.5" stroke-width="0.5" stroke-miterlimit="10"/>
<path d="M54.5873 947.623C48.2509 909.388 66.0033 868.202 98.2342 846.591C109.354 839.127 121.848 833.941 134.457 829.387C144.923 825.613 155.8 822.124 164.47 815.145C174.777 806.849 180.976 794.209 183.3 781.19C185.623 768.171 184.356 754.762 181.642 741.816C178.473 726.573 173.721 709.538 182.085 696.392" stroke="#67B5FF" stroke-opacity="0.5" stroke-width="0.5" stroke-miterlimit="10"/>
<path d="M89.2978 953.208C82.9612 914.973 100.725 873.786 132.946 852.176C144.078 844.712 156.561 839.526 169.171 834.972C179.647 831.198 190.514 827.708 199.185 820.73C209.482 812.423 215.702 799.773 218.015 786.775C220.328 773.777 219.071 760.347 216.357 747.401C213.189 732.158 208.447 715.122 216.801 701.977" stroke="#67B5FF" stroke-opacity="0.5" stroke-width="0.5" stroke-miterlimit="10"/>
<path d="M100.491 964.369C94.0182 926.143 112.164 884.944 145.09 863.332C156.45 855.868 169.201 850.682 182.082 846.127C192.784 842.353 203.896 838.864 212.742 831.885C223.326 823.641 229.615 810.99 231.956 797.928C234.297 784.867 233.035 771.499 230.263 758.553C227.026 743.309 222.182 726.273 230.716 713.137" stroke="#67B5FF" stroke-opacity="0.5" stroke-width="0.5" stroke-miterlimit="10"/>
<path d="M123.794 964.369C117.321 926.143 135.467 884.944 168.392 863.332C179.752 855.868 192.504 850.682 205.385 846.127C216.087 842.353 227.199 838.864 236.045 831.885C246.628 823.641 252.918 810.99 255.259 797.928C257.6 784.867 256.338 771.499 253.565 758.553C250.329 743.309 245.485 726.273 254.018 713.137" stroke="#67B5FF" stroke-opacity="0.5" stroke-width="0.5" stroke-miterlimit="10"/>
<path d="M147.097 964.369C140.624 926.143 158.769 884.944 191.695 863.332C203.055 855.868 215.807 850.682 228.688 846.127C239.39 842.353 250.502 838.864 259.348 831.885C269.931 823.641 276.221 810.99 278.562 797.928C280.903 784.867 279.641 771.499 276.868 758.553C273.632 743.309 268.788 726.273 277.321 713.137" stroke="#67B5FF" stroke-opacity="0.5" stroke-width="0.5" stroke-miterlimit="10"/>
<path d="M170.399 964.369C163.926 926.143 182.072 884.944 214.998 863.332C226.358 855.868 239.109 850.682 251.991 846.127C262.692 842.353 273.804 838.864 282.651 831.885C293.234 823.641 299.523 810.99 301.864 797.928C304.206 784.867 302.943 771.499 300.171 758.553C296.934 743.309 292.09 726.273 300.624 713.137" stroke="#67B5FF" stroke-opacity="0.5" stroke-width="0.5" stroke-miterlimit="10"/>
<path d="M193.702 964.369C187.229 926.143 205.375 884.944 238.301 863.332C249.661 855.868 262.412 850.682 275.293 846.127C285.995 842.353 297.107 838.864 305.953 831.885C316.537 823.641 322.826 810.99 325.167 797.928C327.508 784.867 326.246 771.499 323.473 758.553C320.237 743.309 315.393 726.273 323.927 713.137" stroke="#67B5FF" stroke-opacity="0.5" stroke-width="0.5" stroke-miterlimit="10"/>
<path d="M217.007 964.369C210.534 926.143 228.68 884.944 261.605 863.332C272.965 855.868 285.717 850.682 298.598 846.127C309.3 842.353 320.412 838.864 329.258 831.885C339.841 823.641 346.131 810.99 348.472 797.928C350.813 784.867 349.551 771.499 346.778 758.553C343.542 743.309 338.698 726.273 347.231 713.137" stroke="#67B5FF" stroke-opacity="0.5" stroke-width="0.5" stroke-miterlimit="10"/>
<path d="M240.309 964.369C233.837 926.143 251.982 884.944 284.908 863.332C296.268 855.868 309.02 850.682 321.901 846.127C332.603 842.353 343.714 838.864 352.561 831.885C363.144 823.641 369.434 810.99 371.775 797.928C374.116 784.867 372.853 771.499 370.081 758.553C366.844 743.309 362.001 726.273 370.534 713.137" stroke="#67B5FF" stroke-opacity="0.5" stroke-width="0.5" stroke-miterlimit="10"/>
<path d="M263.612 964.369C257.139 926.143 275.285 884.944 308.211 863.332C319.571 855.868 332.322 850.682 345.203 846.127C355.905 842.353 367.017 838.864 375.864 831.885C386.447 823.641 392.736 810.99 395.077 797.928C397.418 784.867 396.156 771.499 393.384 758.553C390.147 743.309 385.303 726.273 393.837 713.137" stroke="#67B5FF" stroke-opacity="0.5" stroke-width="0.5" stroke-miterlimit="10"/>
<path d="M286.915 964.369C280.442 926.143 298.588 884.944 331.513 863.332C342.873 855.868 355.625 850.682 368.506 846.127C379.208 842.353 390.32 838.864 399.166 831.885C409.75 823.641 416.039 810.99 418.38 797.928C420.721 784.867 419.459 771.499 416.686 758.553C413.45 743.309 408.606 726.273 417.139 713.137" stroke="#67B5FF" stroke-opacity="0.5" stroke-width="0.5" stroke-miterlimit="10"/>
<path d="M310.218 964.369C303.745 926.143 321.891 884.944 354.816 863.332C366.176 855.868 378.928 850.682 391.809 846.127C402.511 842.353 413.623 838.864 422.469 831.885C433.052 823.641 439.342 810.99 441.683 797.928C444.024 784.867 442.762 771.499 439.989 758.553C436.753 743.309 431.909 726.273 440.442 713.137" stroke="#67B5FF" stroke-opacity="0.5" stroke-width="0.5" stroke-miterlimit="10"/>
<path d="M333.522 964.369C327.049 926.143 345.195 884.944 378.121 863.332C389.481 855.868 402.232 850.682 415.114 846.127C425.815 842.353 436.927 838.864 445.774 831.885C456.357 823.641 462.646 810.99 464.988 797.928C467.329 784.867 466.066 771.499 463.294 758.553C460.057 743.309 455.213 726.273 463.747 713.137" stroke="#67B5FF" stroke-opacity="0.5" stroke-width="0.5" stroke-miterlimit="10"/>
<path d="M356.825 964.369C350.352 926.143 368.498 884.944 401.424 863.332C412.784 855.868 425.535 850.682 438.416 846.127C449.118 842.353 460.23 838.864 469.076 831.885C479.66 823.641 485.949 810.99 488.29 797.928C490.631 784.867 489.369 771.499 486.596 758.553C483.36 743.309 478.516 726.273 487.05 713.137" stroke="#67B5FF" stroke-opacity="0.5" stroke-width="0.5" stroke-miterlimit="10"/>
<path d="M380.128 964.369C373.655 926.143 391.801 884.944 424.726 863.332C436.086 855.868 448.838 850.682 461.719 846.127C472.421 842.353 483.533 838.864 492.379 831.885C502.962 823.641 509.252 810.99 511.593 797.928C513.934 784.867 512.672 771.499 509.899 758.553C506.663 743.309 501.819 726.273 510.352 713.137" stroke="#67B5FF" stroke-opacity="0.5" stroke-width="0.5" stroke-miterlimit="10"/>
<path d="M403.431 964.369C396.958 926.143 415.103 884.944 448.029 863.332C459.389 855.868 472.141 850.682 485.022 846.127C495.724 842.353 506.836 838.864 515.682 831.885C526.265 823.641 532.555 810.99 534.896 797.928C537.237 784.867 535.975 771.499 533.202 758.553C529.965 743.309 525.122 726.273 533.655 713.137" stroke="#67B5FF" stroke-opacity="0.5" stroke-width="0.5" stroke-miterlimit="10"/>
<path d="M426.733 964.369C420.26 926.143 438.406 884.944 471.332 863.332C482.692 855.868 495.443 850.682 508.325 846.127C519.026 842.353 530.138 838.864 538.985 831.885C549.568 823.641 555.857 810.99 558.198 797.928C560.539 784.867 559.277 771.499 556.505 758.553C553.268 743.309 548.424 726.273 556.958 713.137" stroke="#67B5FF" stroke-opacity="0.5" stroke-width="0.5" stroke-miterlimit="10"/>
<path d="M450.036 964.369C443.563 926.143 461.709 884.944 494.635 863.332C505.994 855.868 518.746 850.682 531.627 846.127C542.329 842.353 553.441 838.864 562.287 831.885C572.871 823.641 579.16 810.99 581.501 797.928C583.842 784.867 582.58 771.499 579.807 758.553C576.571 743.309 571.727 726.273 580.261 713.137" stroke="#67B5FF" stroke-opacity="0.5" stroke-width="0.5" stroke-miterlimit="10"/>
<path d="M473.341 964.369C466.868 926.143 485.014 884.944 517.939 863.332C529.299 855.868 542.051 850.682 554.932 846.127C565.634 842.353 576.746 838.864 585.592 831.885C596.175 823.641 602.465 810.99 604.806 797.928C607.147 784.867 605.885 771.499 603.112 758.553C599.876 743.309 595.032 726.273 603.565 713.137" stroke="#67B5FF" stroke-opacity="0.5" stroke-width="0.5" stroke-miterlimit="10"/>
<path d="M496.643 964.369C490.171 926.143 508.316 884.944 541.242 863.332C552.602 855.868 565.354 850.682 578.235 846.127C588.937 842.353 600.048 838.864 608.895 831.885C619.478 823.641 625.768 810.99 628.109 797.928C630.45 784.867 629.187 771.499 626.415 758.553C623.178 743.309 618.334 726.273 626.868 713.137" stroke="#67B5FF" stroke-opacity="0.5" stroke-width="0.5" stroke-miterlimit="10"/>
<path d="M518.118 964.369C511.645 926.143 529.791 884.944 562.717 863.332C574.077 855.868 586.828 850.682 599.709 846.127C610.411 842.353 621.523 838.864 630.369 831.885C640.953 823.641 647.242 810.99 649.583 797.928C651.924 784.867 650.662 771.499 647.889 758.553C644.653 743.309 639.809 726.273 648.343 713.137" stroke="#67B5FF" stroke-opacity="0.5" stroke-width="0.5" stroke-miterlimit="10"/>
</g>
</g>
<path d="M505.911 658.109H445.494V881.697L505.911 820.427V658.109Z" fill="#99CDFF"/>
<path d="M445.471 658.109H390.727V881.72H445.471V658.109Z" fill="white"/>
<path d="M123.416 844.659L322.077 844.936L419.781 942.964L221.259 942.917L123.416 844.659Z" fill="#329CFF"/>
<path d="M221.444 1138.88L173.364 1138.67L71.2317 1138.23L24.6738 1138.02V943.006L123.439 844.632L221.351 943.006L221.444 1138.88Z" fill="#99CDFF"/>
<path d="M173.363 1041.15V1138.67L71.2305 1138.24V1041.15C71.5143 1027.8 77.0192 1015.09 86.5651 1005.74C96.1109 996.395 108.938 991.162 122.297 991.162C135.655 991.162 148.482 996.395 158.028 1005.74C167.574 1015.09 173.079 1027.8 173.363 1041.15Z" fill="#329CFF"/>
<ellipse cx="215.611" cy="1121.61" rx="47.2727" ry="78.4035" fill="#54C3A1"/>
<path d="M63.2617 1022.45C63.2617 1021.9 62.814 1021.45 62.2617 1021.45C61.7094 1021.45 61.2617 1021.9 61.2617 1022.45L63.2617 1022.45ZM61.2617 1022.45L61.2617 1130.84L63.2617 1130.84L63.2617 1022.45L61.2617 1022.45Z" fill="black"/>
<ellipse cx="63.4153" cy="995.936" rx="47.2727" ry="49.5787" fill="#54C3A1"/>
</g>
</svg>
