<svg width="386" height="408" viewBox="0 0 386 408" fill="none" xmlns="http://www.w3.org/2000/svg">
<circle cx="193" cy="193" r="193" fill="#E6F3FF"/>
<path d="M101.644 143.266L101.633 143.278C95.7604 149.15 95.7604 158.671 101.633 164.543L124.243 187.153C130.115 193.025 139.636 193.025 145.508 187.153L145.519 187.141C151.392 181.269 151.392 171.748 145.519 165.876L122.909 143.266C117.037 137.394 107.516 137.394 101.644 143.266Z" fill="#070D2B"/>
<path d="M125.738 274.543C125.738 274.543 120.097 345.874 164.525 359.074L182.049 399.21L216.463 398.868L255.884 260.059L185.17 188.191L125.738 274.543Z" fill="#070D2B"/>
<path d="M236.978 77H142.466C132.033 77 123.576 85.4571 123.576 95.8894V321.685C123.576 332.117 132.033 340.574 142.466 340.574H236.978C247.41 340.574 255.867 332.117 255.867 321.685V95.8894C255.867 85.4571 247.41 77 236.978 77Z" fill="#99CDFF"/>
<mask id="mask0_3688_132779" style="mask-type:alpha" maskUnits="userSpaceOnUse" x="123" y="77" width="133" height="264">
<path d="M236.978 77H142.466C132.033 77 123.576 85.4571 123.576 95.8894V321.685C123.576 332.117 132.033 340.574 142.466 340.574H236.978C247.41 340.574 255.867 332.117 255.867 321.685V95.8894C255.867 85.4571 247.41 77 236.978 77Z" fill="#99CDFF"/>
</mask>
<g mask="url(#mask0_3688_132779)">
<g opacity="0.39">
<path d="M159.731 419.389C125.502 390.212 99.605 348.001 96.2485 315.799C95.0843 304.682 96.403 294.867 98.2931 285.529C99.8665 277.783 101.858 270.095 99.9978 260.459C97.7866 249.003 90.1745 235.719 80.5203 223.819C70.8661 211.918 59.2884 201.267 47.4456 191.638C33.5129 180.288 17.4011 168.135 10.3401 153.478" stroke="#0083FF" stroke-miterlimit="10"/>
<path d="M150.465 428.492C116.236 399.316 90.3389 357.104 86.9824 324.902C85.8182 313.786 87.1369 303.97 89.0269 294.632C90.6004 286.887 92.5915 279.198 90.7317 269.562C88.5205 258.106 80.9084 244.823 71.2542 232.922C61.5999 221.022 50.0222 210.371 38.1795 200.742C24.2467 189.391 8.13501 177.238 1.07397 162.582" stroke="#0083FF" stroke-miterlimit="10"/>
<path d="M170.549 417.932C136.32 388.755 110.428 346.539 107.067 314.341C105.908 303.22 107.222 293.409 109.113 284.071C110.691 276.32 112.678 268.636 110.818 259C108.594 247.54 100.982 234.238 91.3407 222.36C81.6991 210.482 70.1088 199.808 58.266 190.179C44.3332 178.829 28.2261 166.671 21.1605 152.019" stroke="#0083FF" stroke-miterlimit="10"/>
<path d="M184.711 422.35C150.429 393.24 124.698 350.846 121.651 318.339C120.593 307.117 122.027 297.188 124.038 287.73C125.717 279.881 127.813 272.09 126.031 262.376C123.987 250.843 116.406 237.51 106.724 225.566C97.043 213.622 85.5017 203.004 73.6324 193.4C59.6686 182.079 43.5154 169.965 36.5382 155.243" stroke="#0083FF" stroke-miterlimit="10"/>
<path d="M195.116 412.127C160.834 383.018 135.102 340.623 132.055 308.116C130.998 296.894 132.432 286.965 134.443 277.508C136.122 269.658 138.218 261.867 136.436 252.153C134.391 240.62 126.811 227.287 117.129 215.344C107.448 203.4 95.9065 192.781 84.0372 183.177C70.0734 171.856 53.9201 159.743 46.943 145.02" stroke="#0083FF" stroke-miterlimit="10"/>
<path d="M205.521 401.904C171.238 372.795 145.507 330.401 142.46 297.894C141.402 286.672 142.836 276.742 144.847 267.285C146.526 259.436 148.622 251.644 146.841 241.931C144.796 230.397 137.215 217.065 127.533 205.121C117.852 193.177 106.311 182.558 94.4415 172.955C80.4777 161.634 64.3244 149.52 57.3473 134.798" stroke="#0083FF" stroke-miterlimit="10"/>
<path d="M215.925 391.68C181.643 362.57 155.911 320.176 152.864 287.669C151.807 276.447 153.241 266.518 155.252 257.06C156.931 249.211 159.026 241.42 157.245 231.706C155.2 220.173 147.619 206.84 137.938 194.896C128.256 182.952 116.715 172.334 104.846 162.73C90.882 151.409 74.7287 139.295 67.7516 124.573" stroke="#0083FF" stroke-miterlimit="10"/>
<path d="M226.33 381.457C192.048 352.348 166.316 309.954 163.269 277.446C162.211 266.224 163.645 256.295 165.657 246.838C167.335 238.988 169.431 231.197 167.65 221.483C165.605 209.95 158.024 196.618 148.343 184.674C138.661 172.73 127.12 162.111 115.251 152.507C101.287 141.186 85.1335 129.073 78.1564 114.351" stroke="#0083FF" stroke-miterlimit="10"/>
<path d="M236.734 371.234C202.452 342.125 176.72 299.731 173.673 267.224C172.616 256.002 174.05 246.072 176.061 236.615C177.74 228.766 179.835 220.974 178.054 211.261C176.009 199.727 168.428 186.395 158.747 174.451C149.065 162.507 137.524 151.888 125.655 142.285C111.691 130.964 95.5378 118.85 88.5607 104.128" stroke="#0083FF" stroke-miterlimit="10"/>
<path d="M247.139 361.012C212.857 331.902 187.125 289.508 184.078 257.001C183.02 245.779 184.454 235.85 186.466 226.392C188.145 218.543 190.24 210.752 188.459 201.038C186.414 189.505 178.833 176.172 169.152 164.228C159.47 152.284 147.929 141.666 136.06 132.062C122.096 120.741 105.943 108.627 98.9654 93.9052" stroke="#0083FF" stroke-miterlimit="10"/>
<path d="M257.543 350.787C223.261 321.678 197.529 279.284 194.482 246.776C193.425 235.554 194.859 225.625 196.87 216.168C198.549 208.318 200.644 200.527 198.863 190.813C196.818 179.28 189.237 165.948 179.556 154.004C169.874 142.06 158.333 131.441 146.464 121.837C132.5 110.517 116.347 98.4029 109.37 83.6806" stroke="#0083FF" stroke-miterlimit="10"/>
<path d="M267.948 340.564C233.666 311.455 207.934 269.061 204.887 236.554C203.83 225.332 205.264 215.402 207.275 205.945C208.954 198.096 211.049 190.305 209.268 180.591C207.223 169.057 199.642 155.725 189.961 143.781C180.279 131.837 168.738 121.218 156.869 111.615C142.905 100.294 126.752 88.1802 119.775 73.4579" stroke="#0083FF" stroke-miterlimit="10"/>
<path d="M278.352 330.342C244.07 301.233 218.338 258.838 215.291 226.331C214.234 215.109 215.668 205.18 217.679 195.722C219.358 187.873 221.454 180.082 219.672 170.368C217.627 158.835 210.046 145.502 200.365 133.558C190.684 121.614 179.142 110.996 167.273 101.392C153.309 90.0712 137.156 77.9575 130.179 63.2353" stroke="#0083FF" stroke-miterlimit="10"/>
<path d="M288.756 320.119C254.474 291.01 228.743 248.616 225.696 216.108C224.638 204.886 226.072 194.957 228.083 185.5C229.762 177.65 231.858 169.859 230.076 160.145C228.031 148.612 220.451 135.28 210.769 123.336C201.088 111.392 189.547 100.773 177.677 91.1695C163.714 79.8485 147.56 67.7349 140.583 53.0126" stroke="#0083FF" stroke-miterlimit="10"/>
<path d="M299.161 309.896C264.879 280.787 239.147 238.393 236.1 205.886C235.043 194.664 236.477 184.735 238.488 175.277C240.167 167.428 242.263 159.637 240.481 149.923C238.436 138.39 230.855 125.057 221.174 113.113C211.493 101.169 199.951 90.5505 188.082 80.9468C174.118 69.6259 157.965 57.5122 150.988 42.79" stroke="#0083FF" stroke-miterlimit="10"/>
<path d="M309.565 299.672C275.283 270.563 249.552 228.168 246.505 195.661C245.447 184.439 246.881 174.51 248.892 165.053C250.571 157.203 252.667 149.412 250.885 139.698C248.841 128.165 241.26 114.832 231.578 102.888C221.897 90.9445 210.356 80.3259 198.486 70.7222C184.523 59.4013 168.369 47.2876 161.392 32.5654" stroke="#0083FF" stroke-miterlimit="10"/>
<path d="M319.97 289.449C285.688 260.34 259.956 217.946 256.909 185.438C255.852 174.217 257.286 164.287 259.297 154.83C260.976 146.981 263.072 139.189 261.29 129.475C259.245 117.942 251.665 104.61 241.983 92.6658C232.302 80.7219 220.76 70.1032 208.891 60.4996C194.927 49.1786 178.774 37.065 171.797 22.3427" stroke="#0083FF" stroke-miterlimit="10"/>
<path d="M330.375 279.225C296.092 250.115 270.361 207.721 267.314 175.214C266.256 163.992 267.69 154.063 269.701 144.605C271.38 136.756 273.476 128.965 271.695 119.251C269.65 107.718 262.069 94.3851 252.387 82.4412C242.706 70.4973 231.165 59.8786 219.295 50.275C205.332 38.954 189.178 26.8404 182.201 12.1181" stroke="#0083FF" stroke-miterlimit="10"/>
<path d="M340.779 269.004C306.497 239.895 280.765 197.5 277.718 164.993C276.661 153.771 278.095 143.842 280.106 134.385C281.785 126.535 283.88 118.744 282.099 109.03C280.054 97.497 272.473 84.1644 262.792 72.2205C253.11 60.2766 241.569 49.6579 229.7 40.0543C215.736 28.7333 199.583 16.6197 192.606 1.8974" stroke="#0083FF" stroke-miterlimit="10"/>
<path d="M351.184 258.779C316.902 229.67 291.17 187.276 288.123 154.769C287.065 143.547 288.499 133.617 290.511 124.16C292.189 116.311 294.285 108.519 292.504 98.8055C290.459 87.2723 282.878 73.9398 273.197 61.9959C263.515 50.0519 251.974 39.4333 240.105 29.8296C226.141 18.5087 209.988 6.39505 203.01 -8.32721" stroke="#0083FF" stroke-miterlimit="10"/>
<path d="M361.588 248.555C327.306 219.445 301.574 177.051 298.527 144.544C297.47 133.322 298.904 123.393 300.915 113.935C302.594 106.086 304.689 98.2947 302.908 88.5809C300.863 77.0477 293.282 63.7152 283.601 51.7713C273.919 39.8273 262.378 29.2087 250.509 19.605C236.545 8.28409 220.392 -3.82956 213.415 -18.5518" stroke="#0083FF" stroke-miterlimit="10"/>
<path d="M371.176 239.135C336.894 210.026 311.162 167.631 308.115 135.124C307.058 123.902 308.492 113.973 310.503 104.515C312.182 96.6661 314.277 88.8748 312.496 79.161C310.451 67.6278 302.87 54.2953 293.189 42.3513C283.507 30.4074 271.966 19.7888 260.097 10.1851C246.133 -1.13583 229.98 -13.2495 223.003 -27.9717" stroke="#0083FF" stroke-miterlimit="10"/>
</g>
</g>
<path d="M235.398 88.3789H146.029C140.632 88.3789 136.256 92.5248 136.256 97.6391V318.082C136.256 323.196 140.632 327.342 146.029 327.342H235.398C240.795 327.342 245.171 323.196 245.171 318.082V97.6391C245.171 92.5248 240.795 88.3789 235.398 88.3789Z" fill="#E6F3FF"/>
<path d="M290.2 397.519C282.009 381.717 274.947 365.355 269.068 348.556C267.203 344.033 266.189 339.206 266.076 334.315C266.288 327.13 270.108 320.628 273.831 314.483L290.688 286.523C300.75 269.844 286.331 248.354 280.252 232.651C276.22 222.214 272.091 211.81 267.865 201.439C266.515 198.188 256.55 172.097 254.86 170.553C239.725 179.413 237.921 194.709 239.725 208.673C241.205 220.052 248.845 230.57 247.61 241.998C246.553 251.751 239.384 259.408 233.402 267.113C203.101 306.225 206.401 352.376 206.384 399.079L290.2 397.519Z" fill="#0083FF"/>
<path d="M103.584 198.444L103.572 198.455C97.6998 204.328 97.6998 213.848 103.572 219.721L107.733 223.882C113.605 229.754 123.126 229.754 128.998 223.882L129.01 223.87C134.882 217.998 134.882 208.477 129.01 202.605L124.849 198.444C118.977 192.572 109.456 192.572 103.584 198.444Z" fill="#0083FF"/>
<path d="M103.583 225.102L103.571 225.113C97.6989 230.986 97.6989 240.506 103.571 246.379L107.732 250.54C113.604 256.412 123.125 256.412 128.997 250.54L129.009 250.528C134.881 244.656 134.881 235.135 129.009 229.263L124.848 225.102C118.976 219.23 109.455 219.23 103.583 225.102Z" fill="#0083FF"/>
<path d="M103.574 252.875L103.562 252.887C97.6901 258.759 97.6901 268.28 103.562 274.152L107.723 278.313C113.596 284.185 123.116 284.185 128.989 278.313L129 278.302C134.872 272.43 134.872 262.909 129 257.037L124.839 252.875C118.967 247.003 109.446 247.003 103.574 252.875Z" fill="#0083FF"/>
<circle cx="190.713" cy="207.86" r="33.3248" fill="#54C3A1"/>
<path d="M178.521 221.353V194.043H183.515L196.351 213.277V194.043H201.345V221.353H196.351L183.515 202.158V221.353H178.521Z" fill="white"/>
<rect x="175.271" y="200.545" width="30.8864" height="4.87679" fill="white"/>
<rect x="175.271" y="208.674" width="30.8864" height="4.87679" fill="white"/>
<path d="M179.709 363.08C179.61 366.181 169.536 368.569 155.284 369.298C150.574 369.539 145.392 369.597 139.962 369.439C134.68 369.29 129.656 368.95 125.038 368.469C110.686 366.935 100.621 363.975 100.621 360.841V360.8C100.745 356.654 118.538 353.819 140.418 354.449C162.298 355.079 179.825 358.934 179.709 363.08Z" fill="#FFD9D7"/>
<path d="M179.712 363.078V376.949C179.58 381.095 161.787 383.939 139.915 383.309C118.043 382.679 100.466 378.823 100.582 374.686V360.84C100.582 363.974 110.648 366.934 125 368.468C129.584 368.949 134.609 369.297 139.923 369.438C145.354 369.595 150.536 369.537 155.245 369.297C169.539 368.567 179.613 366.179 179.712 363.078Z" fill="#FF9583"/>
<path d="M112.231 338.089C117.935 343.105 129.701 348.669 143.829 352.599C157.6 356.429 170.244 357.747 177.822 356.57C181.478 356.006 183.932 354.846 184.77 353.113L184.961 352.59C186.619 346.737 170.866 337.244 149.757 331.39C128.647 325.537 110.299 325.537 108.666 331.39C108.102 333.322 109.445 335.643 112.231 338.089Z" fill="#FFD9D7"/>
<path d="M140.381 363.062C161.167 368.866 179.349 368.775 181.008 362.921L184.78 353.113C183.951 354.846 181.463 356.006 177.832 356.57C170.287 357.747 157.643 356.429 143.839 352.599C129.744 348.669 117.945 343.105 112.241 338.089C109.455 335.643 108.096 333.322 108.643 331.398L105.7 341.994C104.058 347.856 119.595 357.283 140.381 363.062Z" fill="#FF9583"/>
</svg>
