<svg width="35" height="24" viewBox="0 0 35 24" fill="none" xmlns="http://www.w3.org/2000/svg">
<path d="M29.4712 6.99271C28.3201 2.9527 24.6614 0 20.3251 0C17.0561 0 14.1716 1.67795 12.4568 4.23956C11.5826 3.51102 10.4676 3.07333 9.25038 3.07333C6.45304 3.07333 4.18445 5.38442 4.18445 8.23489C4.18445 8.71701 4.25024 9.18213 4.37138 9.62616C1.79597 10.7965 0 13.4283 0 16.4871C0 20.6354 3.29861 24 7.36807 24H14.7312V17.3839H10.7283L17.3997 9.38441L24.0693 17.3839H20.0676V24H26.1213C30.9151 24 34.8 20.0387 34.8 15.1535C34.8003 11.4764 32.6021 8.32668 29.4712 6.9924L29.4712 6.99271Z" fill="#8390B2"/>
</svg>
